<?xml version="1.0" encoding="UTF-8"?>
<svg id="Warstwa_1" data-name="Warstwa 1" xmlns="http://www.w3.org/2000/svg" viewBox="0 0 12.18 11.53">
  <path d="M8.95,11.02h.32v-3.79s.09-.15.13-.19c.08-.05,1.4-.06,1.56-.03.07.01.22.11.22.16v3.85l.89.03c.19.12.1.48-.1.48h-4.58l-.1-.1v-3.12s-.13-.28-.16-.35c-.46-.83-1.63-.85-2.09,0-.03.06-.16.31-.16.35v3.12l-.1.1H.2s-.12-.06-.14-.08c-.31-.61.58-.39.94-.43v-3.85s.15-.14.22-.16c.17-.03,1.44-.02,1.56.03.03.01.13.12.13.13v3.85h.32v-6.01c.84-1.46,1.56-3.01,2.41-4.47.42-.72.49-.72.91,0,.85,1.46,1.56,3,2.41,4.47v6.01ZM5.84,4.59v1.24s.16.17.23.16c.08.03.28-.12.28-.16v-1.24c.93.13.87-.6,0-.51.15-1.09-.68-1.13-.51,0-1-.12-1.05.66,0,.51Z"/>
</svg>