<?xml version="1.0" encoding="UTF-8"?>
<svg id="Warstwa_1" data-name="Warstwa 1" xmlns="http://www.w3.org/2000/svg" viewBox="0 0 18.8 18.8">
  <ellipse cx="9.32" cy="9.28" rx="8.75" ry="8.48" fill="#fff"/>
  <path fill="#aa7b74" d="M18.8,8.74v1.32c-.06.2-.05.43-.08.64-.55,4.12-3.9,7.48-8.03,8.02-.21.03-.44.02-.64.08-.43-.02-.89.03-1.32,0C.7,18.3-2.97,8.28,2.84,2.64s15.47-1.8,15.96,6.1ZM14.58,15.49c.06.02.07-.03.11-.05.79-.61,1.66-1.91,2.06-2.82,1.94-4.46-.5-9.63-5.16-10.94C5.69.01.17,5.31,1.59,11.27c.47,1.96,1.7,3.69,3.36,4.81v-2.92c0-.14.29-.95.32-1.25.04-.33.1-1.22-.15-1.47-.05-.05-.26-.1-.34-.16-1.75-1.06-1.83-4.49.1-5.29,2.81-1.18,4.2,3.76,1.64,5.31-.24.15-.32.04-.43.38-.26.8.07,1.82.28,2.6v3.56c1.01.41,2.11.63,3.2.57v-4.31c0-.06.18-.53.2-.68.22-1.23-.07-1.64-.79-2.52-.34-.41-.47-.78-.44-1.32l.41-3.33.06-.05h.31s-.11,4-.11,4h.44v-4h.37v4h.37v-4h.37v4h.44s-.11-4-.11-4h.4s.41,3.62.41,3.62c-.03.94-.89,1.31-1.13,2.18-.21.77-.05,1.47.1,2.23v4.09c.84-.18,1.66-.45,2.4-.88.07-.35-.06-.7-.02-1.05.02-.15.1-.25.13-.38.19-.82.1-1.47-.79-1.75.02-1.8.08-3.66.45-5.42.16-.74.41-1.64.79-2.29.09-.15.39-.6.55-.63.05-.01.19-.01.19.05v10.55ZM5.03,9.87c-.21-.54-.55-1.06-.65-1.64s0-1.18-.03-1.77c-.66,1.15-.41,2.63.68,3.41Z"/>
</svg>